<svg xmlns="http://www.w3.org/2000/svg" width="30" height="22" viewBox="0 0 30 22">
    <defs>
        <path id="a" d="M27.333 5.32a3.333 3.333 0 0 1 3.334 3.334v10.667a3.333 3.333 0 0 1-3.334 3.333h-.667v.692a3.333 3.333 0 0 1-3.333 3.333H4.667a3.333 3.333 0 0 1-3.334-3.333V12.679a3.333 3.333 0 0 1 3.334-3.333h.666v-.692a3.333 3.333 0 0 1 3.334-3.333h18.666zm-22 5.359h-.666a2 2 0 0 0-2 2v10.667a2 2 0 0 0 2 2h18.666a2 2 0 0 0 2-2v-.692H8.667a3.333 3.333 0 0 1-3.334-3.333v-3.988a.68.68 0 0 1 0-.012v-3.962a.68.68 0 0 1 0-.013v-.667zm24 5.308H6.666v3.334a2 2 0 0 0 2 2h18.667a2 2 0 0 0 2-2v-3.334zm0-3.975H6.666v2.642h22.667v-2.642zm-2-5.358H8.667a2 2 0 0 0-2 2v2.025h22.666V8.654a2 2 0 0 0-2-2z"/>
    </defs>
    <path fill="none" fill-rule="evenodd" stroke="#CCC" d="M26.333.82H7.667a2.833 2.833 0 0 0-2.834 2.834v1.192H3.667A2.833 2.833 0 0 0 .833 7.679v10.667a2.833 2.833 0 0 0 2.834 2.833h18.666a2.833 2.833 0 0 0 2.834-2.833v-1.193h.5l.666.001a2.833 2.833 0 0 0 2.834-2.833V3.654A2.833 2.833 0 0 0 26.333.821zM3.666 5.18l1.167-.002V14.321a2.833 2.833 0 0 0 2.834 2.833h17.166v1.192a2.5 2.5 0 0 1-2.5 2.5H3.667a2.5 2.5 0 0 1-2.5-2.5V7.679a2.5 2.5 0 0 1 2.5-2.5zm1.5 5.307h23.667v3.834a2.5 2.5 0 0 1-2.5 2.5H7.667a2.5 2.5 0 0 1-2.5-2.5v-3.834zm0-3.975h23.667v3.642H5.166V6.512zm21.167-5.358a2.5 2.5 0 0 1 2.5 2.5V6.18H5.166V3.654a2.5 2.5 0 0 1 2.5-2.5h18.667z"/>
</svg>
