<svg xmlns="http://www.w3.org/2000/svg" width="28" height="25" viewBox="0 0 28 25">
    <defs>
        <path id="a" d="M18.002 2.423c1.105 0 2 .806 2 1.8v20.4c0 .995-.895 1.8-2 1.8H4.67c-1.104 0-2-.805-2-1.8v-20.4c0-.994.896-1.8 2-1.8h13.333zm7.834-.046h.033l.04.003-.073-.003a.74.74 0 0 1 .393.115.67.67 0 0 1 .078.06l2.829 2.546c.26.234.26.614 0 .848a.72.72 0 0 1-.943 0l-1.69-1.521v21.352c0 .33-.299.6-.667.6-.368 0-.667-.27-.667-.6V4.424l-1.69 1.522a.72.72 0 0 1-.943 0 .559.559 0 0 1 0-.848l2.828-2.546.017-.014a.66.66 0 0 1 .058-.043l-.075.057a.66.66 0 0 1 .33-.162.711.711 0 0 1 .142-.013zm-7.834 1.246H4.67c-.368 0-.667.27-.667.6v20.4c0 .332.299.6.667.6h13.333c.369 0 .667-.268.667-.6v-20.4c0-.33-.298-.6-.667-.6zm-6.666 5.4c.368 0 .666.27.666.6l.002 1.055c.273.036.524.092.752.162.278.086.477.18.598.256.301.19.374.564.163.835-.212.272-.628.337-.93.147a1.443 1.443 0 0 0-.265-.103 3.75 3.75 0 0 0-1.102-.147c-.72 0-1.297.401-1.297.934 0 .197.258.442.78.69.268.128 1.05.419 1.035.412l.018.005c.121.043.71.267.972.395.872.424 1.418.996 1.418 1.807 0 1.136-.842 1.86-2.143 2.078v1.074c0 .332-.299.6-.667.6-.368 0-.667-.268-.667-.6v-1.038a4.786 4.786 0 0 1-.29-.05 8.505 8.505 0 0 1-1.473-.462c-.332-.141-.474-.5-.316-.799.158-.299.555-.427.888-.285a7.163 7.163 0 0 0 1.193.376c.177.035.33.054.452.054 1.133 0 1.69-.348 1.69-.948 0-.272-.233-.515-.72-.752a17.34 17.34 0 0 0-.938-.375c.073.031-.739-.27-1.076-.43-.916-.437-1.49-.981-1.49-1.752 0-1.101.928-1.895 2.08-2.088v-1.05c0-.332.299-.6.667-.6z"/>
    </defs>
    <path fill="none" fill-rule="evenodd" stroke="#CCC" d="M16.002.923H2.67c-.84 0-1.5.595-1.5 1.3v20.4c0 .706.66 1.3 1.5 1.3h13.333c.84 0 1.5-.594 1.5-1.3v-20.4c0-.705-.66-1.3-1.5-1.3zm0 .2c.634 0 1.167.48 1.167 1.1v20.4c0 .62-.533 1.1-1.167 1.1H2.67c-.633 0-1.167-.48-1.167-1.1v-20.4c0-.62.534-1.1 1.167-1.1h13.333zM9.305 12.468l-.026-.008c-.015-.01-.015-.01-.6.351l.15.51.01.008.466-.861zm-.44.881l.033.023.031.016zm.44-.881v-.001l.014.004.008.003a1.558 1.558 0 0 1 .032.012l.084.031.273.105c.272.105.479.19.597.247.64.312 1 .689 1 1.202 0 .963-.84 1.448-2.19 1.448-.158 0-.344-.022-.551-.064a7.677 7.677 0 0 1-1.29-.406c-.1-.042-.216-.004-.25.059-.017.033 0 .075.071.106a8.04 8.04 0 0 0 1.375.432c.09.018.177.033.26.044l.431.06v1.473c0 .043.064.1.167.1.103 0 .166-.057.166-.1l.002-1.497.417-.07c1.122-.188 1.725-.754 1.725-1.585 0-.545-.358-.979-1.137-1.358-.189-.092-.7-.294-.891-.363l-.014-.004-.03-.01-.012-.004-.026-.01-.091-.033a34.126 34.126 0 0 1-.299-.114 11.013 11.013 0 0 1-.658-.271c-.672-.32-1.065-.674-1.065-1.142 0-.847.823-1.434 1.797-1.434.471 0 .89.058 1.25.17.168.051.307.108.385.157.087.055.216.035.267-.031.027-.034.02-.07-.035-.106a2.16 2.16 0 0 0-.48-.2 4.1 4.1 0 0 0-.67-.144l-.433-.058v-.437l-.002-1.056c0-.042-.063-.1-.166-.1-.103 0-.167.058-.167.1v1.474l-.418.07c-.99.166-1.662.81-1.662 1.595 0 .49.37.902 1.205 1.3.134.063.377.164.658.272a20.762 20.762 0 0 0 .353.134zm.571-1.084a51.134 51.134 0 0 0-.026-.007l-.33.937c-.003 0-.003 0 .018.008l.338-.938zm-.89 2.03zm.477-.84l.01-.017-.03-.018a.189.189 0 0 1 .02.035z"/>
</svg>
