<svg xmlns="http://www.w3.org/2000/svg" xmlns:xlink="http://www.w3.org/1999/xlink" width="32" height="32" viewBox="0 0 32 32">
    <defs>
        <path id="a" d="M17.076 2.069c.688.66.685 1.543.054 2.526l-.053.066-2.624 2.64 1.93 6.736a.4.4 0 0 1-.102.394l-1.856 1.843a.4.4 0 0 1-.65-.13l-2.396-5.766-2.464 2.487.802 2.887a.4.4 0 0 1-.103.39l-1.358 1.355a.4.4 0 0 1-.64-.104L5.69 13.56l-3.868-1.948a.4.4 0 0 1-.102-.64l1.364-1.36a.4.4 0 0 1 .39-.103l2.883.803 2.468-2.488-5.779-2.39a.4.4 0 0 1-.13-.652L4.76 2.93a.4.4 0 0 1 .393-.103l6.75 1.916 2.7-2.658c.922-.65 1.788-.674 2.473-.016zm-1.961.628l-2.817 2.78a.4.4 0 0 1-.39.1L5.16 3.66 3.904 4.923l5.778 2.39a.4.4 0 0 1 .131.651L6.76 11.042a.4.4 0 0 1-.391.103l-2.885-.803-.807.805 3.491 1.758a.4.4 0 0 1 .178.178l1.736 3.457.802-.8-.802-2.885a.4.4 0 0 1 .102-.388l3.05-3.079a.4.4 0 0 1 .654.129l2.396 5.77 1.265-1.257-1.93-6.733a.4.4 0 0 1 .101-.392l2.759-2.777c.42-.67.415-1.125.043-1.482-.38-.366-.825-.353-1.407.05z"/>
    </defs>
    <g fill="none" fill-rule="evenodd">
        <path fill="#000" fill-rule="nonzero" d="M16 31.2c8.395 0 15.2-6.805 15.2-15.2S24.395.8 16 .8.8 7.605.8 16 7.605 31.2 16 31.2zm0 .8C7.163 32 0 24.837 0 16S7.163 0 16 0s16 7.163 16 16-7.163 16-16 16z"/>
        <use fill="#000" fill-rule="nonzero" transform="translate(6.4 6.4)" xlink:href="#a"/>
    </g>
</svg>
