<svg xmlns="http://www.w3.org/2000/svg" xmlns:xlink="http://www.w3.org/1999/xlink" width="32" height="32" viewBox="0 0 32 32">
    <defs>
        <path id="a" d="M9.655 1.606a.74.74 0 0 1 .436.222c1.567 1.624 3.124 2.696 5.032 2.862a.958.958 0 0 1 .877.956v4.613c0 2.55-1.065 4.453-2.864 5.778a9.088 9.088 0 0 1-3.453 1.557h-.166a9.085 9.085 0 0 1-3.454-1.557C4.265 14.712 3.2 12.808 3.2 10.26V5.646c0-.5.381-.913.876-.956 1.909-.165 3.464-1.237 5.032-2.863a.747.747 0 0 1 .437-.22h.11zM9.6 2.47c-.62.636-1.178 1.135-1.908 1.638-1.13.778-2.314 1.272-3.547 1.38A.157.157 0 0 0 4 5.645v4.613c0 2.281.935 3.953 2.538 5.134a8.304 8.304 0 0 0 1.932 1.048c.428.166.815.28 1.13.352a8.239 8.239 0 0 0 1.13-.352 8.306 8.306 0 0 0 1.932-1.048c1.603-1.181 2.538-2.853 2.538-5.134V5.646a.158.158 0 0 0-.146-.159c-1.233-.107-2.417-.6-3.546-1.38-.73-.502-1.288-1-1.908-1.637zm3.057 4.826a.4.4 0 0 1 .05.563l-3.35 4a.4.4 0 0 1-.554.057L6.552 10.13a.4.4 0 1 1 .496-.627l1.946 1.543 3.1-3.701a.4.4 0 0 1 .563-.05z"/>
    </defs>
    <g fill="none" fill-rule="evenodd">
        <path fill="#000" fill-rule="nonzero" d="M16 31.2c8.395 0 15.2-6.805 15.2-15.2S24.395.8 16 .8.8 7.605.8 16 7.605 31.2 16 31.2zm0 .8C7.163 32 0 24.837 0 16S7.163 0 16 0s16 7.163 16 16-7.163 16-16 16z"/>
        <use fill="#000" fill-rule="nonzero" transform="translate(6.4 6.4)" xlink:href="#a"/>
    </g>
</svg>
