<svg xmlns="http://www.w3.org/2000/svg" xmlns:xlink="http://www.w3.org/1999/xlink" width="32" height="32" viewBox="0 0 32 32">
    <defs>
        <path id="a" d="M21.33 5.372l4.133.008c.686.004 1.151.624 1.173 1.325.244 7.916-1.198 11.561-4.638 11.963v6.708h2a.667.667 0 0 1 0 1.333h-5.334a.667.667 0 0 1 0-1.333h2v-6.708c-3.44-.4-4.884-4.045-4.642-11.963.023-.7.489-1.32 1.176-1.325l4.133-.008zM9.302 5.29c.369 0 .667.298.667.666v5.988c1.155-.346 2.038-1.62 2.038-3.173V6.038a.667.667 0 1 1 1.334 0v2.734c0 2.277-1.443 4.196-3.372 4.544v12.641a.667.667 0 0 1-1.333 0V13.302c-1.893-.383-3.298-2.282-3.298-4.53V6.038a.667.667 0 0 1 1.334 0v2.734c0 1.521.846 2.774 1.964 3.15V5.957c0-.368.298-.666.666-.666zm12.03 1.414l-3.984.008c.007.005.009.015.008.034-.237 7.753 1.078 10.625 3.974 10.625 2.898 0 4.213-2.871 3.975-10.625 0-.019 0-.029.008-.034l-3.981-.008z"/>
    </defs>
    <use fill="#222" fill-rule="nonzero" xlink:href="#a"/>
</svg>
