<svg xmlns="http://www.w3.org/2000/svg" width="27" height="21" viewBox="0 0 27 21">
    <path fill="#FFF" fill-rule="evenodd" d="M11.331 0c.368 0 .667.336.667.75 0 .38-.25.693-.576.743l-.09.007H1.332v8.253l8.72-.007c.338 0 .618.281.662.647l.006.102c0 .38-.25.694-.575.744l-.09.007-8.723.007V19.5h9.998c.368 0 .667.336.667.75 0 .38-.251.693-.576.743l-.09.007H.666c-.338 0-.617-.283-.66-.649L0 20.25V.75C0 .37.25.057.576.007L.666 0h10.665zm14.666 19.493c.368 0 .667.335.667.75 0 .414-.299.75-.667.75H15.332c-.368 0-.666-.337-.666-.75 0-.415.298-.75.666-.75z"/>
</svg>
